# xmcd
# Track frame offsets:
# 150
# 16220
# 30897
# 40745
# 57665
# 67552
# 86365
# 102107
# 113645
# 133442
# 153940
# 171357
#
# Disc length: 2540 seconds
# Revision: 0
# Processed by: cddbd v1.5PL3 Copyright (c) Steve Scherf et al.
# Submitted via: VisiTrax 2.9.6.190 - For more info visit www.synapsa.com
#
DISCID=8b09ea0c
DTITLE=Joe Ely - The Best Of
DYEAR=2003
DGENRE=Country Rock
TTITLE0=She Never Spoke Spanish To Me
TTITLE1=Suckin A Big Bottle Of Gin
TTITLE2=Tonight I Think I'm Gonna Go Downtown
TTITLE3=Honky Tonk Masquerade
TTITLE4=Fingernails
TTITLE5=Fools Fall In Love
TTITLE6=Dallas
TTITLE7=Musta Notta Gotta Lotta
TTITLE8=Settle For Love
TTITLE9=The Road Goes On Forever
TTITLE10=Me and Billy The Kid
TTITLE11=All Just To Get To You
EXTD=Millenium Collection
EXTT0=
EXTT1=
EXTT2=
EXTT3=
EXTT4=
EXTT5=
EXTT6=
EXTT7=
EXTT8=
EXTT9=
EXTT10=
EXTT11=
PLAYORDER=
